<svg xmlns="http://www.w3.org/2000/svg" version="1.1" xmlns:xlink="http://www.w3.org/1999/xlink" width="512" height="512" x="0" y="0" viewBox="0 0 1707 1707" style="enable-background:new 0 0 512 512" xml:space="preserve" fill-rule="evenodd" class=""><g><path d="M1457 716c-11 0-17-5-24-12l-106 106c227 253 165 654-132 825-256 148-586 59-734-197-93-161-96-357-9-521-17-9-31-22-42-38-75 60-189 29-221-62C60 840-28 689 56 589c-35-45-35-107 0-151-76-50-74-162 4-209-6-81 69-145 149-128 27-84 132-112 198-53 49-64 144-64 193-1 60-27 131-2 160 56 95-30 185 60 154 155 72 16 114 93 88 162 84 41 104 153 38 224 91 20 176 63 246 125l106-106c-10-11-17-23-9-38l116-220c9-18 33-21 46-7l153 152c14 14 10 38-7 47l-220 116c-4 2-9 3-14 3zM482 868c103-153 272-238 457-236 47 0 82-45 82-85 0-42-26-74-67-82-22-4-31-29-17-46 39-48-5-119-66-105-28 7-48-27-27-48 55-56-20-144-84-99-18 13-42 3-45-19-9-49-68-71-106-39-15 13-38 7-45-11-25-59-111-50-124 11-6 28-44 32-55 6-27-65-124-46-124 25 0 24-27 37-45 26-49-30-112 16-96 72 4 15-4 30-19 35-64 23-54 119 15 126 29 3 36 43 9 55-44 21-51 82-11 111 16 12 16 36 1 47-79 59-6 183 83 141 19-8 40 4 41 24 8 81 116 103 155 32 13-24 50-17 54 11 3 20 16 38 34 48zm38 47c-1 2-2 3-3 5-23 38-41 80-53 125-82 306 150 604 463 604 366 0 600-399 415-720-16-28-35-54-56-78l-87 87c197 232 30 589-272 589-127 0-246-69-310-179-138-239 37-536 309-536 86 0 168 31 232 85l86-87c-224-198-569-144-724 105zM302 423c-96 0-128-128-70-128 16 0 29 13 29 29 0 23 18 41 41 41 38 0 38 58 0 58zm271 175c-39 0-39-57 0-57 48 0 87-40 87-88 0-38 58-38 58 0 0 80-65 145-145 145zm621-103c-56 0-102-46-102-101 0-56 46-102 102-102s101 46 101 102c0 55-45 101-101 101zm0-145c-57 0-57 87 0 87s57-87 0-87zm212-47c-84 0-152-68-152-151 0-84 68-152 152-152 83 0 151 68 151 152 0 83-68 151-151 151zm0-245c-52 0-94 42-94 94 0 51 42 93 94 93 51 0 93-42 93-93 0-52-42-94-93-94zm-248 921-94 94c79 111-2 264-137 264-172 0-232-228-84-313 57-33 127-30 180 8l94-94c-96-79-231-91-340-28-143 82-192 266-110 409 133 230 480 185 549-72 25-94 3-193-58-268zm-136 136-75 75c-27 26-68-14-41-41l75-75c-97-56-206 53-150 150 49 85 177 68 202-26 8-29 4-58-11-83zm441-464 166-87-97-98-87 167z" fill="#000000" opacity="1" data-original="#000000" class=""></path><path fill="#333333" d="m1463 651 166-87-97-98-87 167z" opacity="1" data-original="#333333"></path><path fill="#8c31ff" d="M1244 810c-224-198-569-144-724 105-1 2-2 3-3 5-23 38-41 80-53 125-82 306 150 604 463 604 366 0 600-399 415-720-16-28-35-54-56-78l-87 87c197 232 30 589-272 589-127 0-246-69-310-179-138-239 37-536 309-536 86 0 168 31 232 85z" opacity="1" data-original="#ff3131" class=""></path><path fill="#ffa721" d="M1117 938c-96-79-231-91-340-28-143 82-192 266-110 409 133 230 480 185 549-72 25-94 3-193-58-268l-94 94c79 111-2 264-137 264-172 0-232-228-84-313 57-33 127-30 180 8z" opacity="1" data-original="#ffa721"></path><path fill="#8c31ff" d="M981 1074c-97-56-206 53-150 150 49 85 177 68 202-26 8-29 4-58-11-83l-75 75c-27 26-68-14-41-41z" opacity="1" data-original="#ff3131" class=""></path><path fill="#e4e4e4" d="M482 868c103-153 272-238 457-236 47 0 82-45 82-85 0-42-26-74-67-82-22-4-31-29-17-46 39-48-5-119-66-105-28 7-48-27-27-48 55-56-20-144-84-99-18 13-42 3-45-19-9-49-68-71-106-39-15 13-38 7-45-11-25-59-111-50-124 11-6 28-44 32-55 6-27-65-124-46-124 25 0 24-27 37-45 26-49-30-112 16-96 72 4 15-4 30-19 35-64 23-54 119 15 126 29 3 36 43 9 55-44 21-51 82-11 111 16 12 16 36 1 47-79 59-6 183 83 141 19-8 40 4 41 24 8 81 116 103 155 32 13-24 50-17 54 11 3 20 16 38 34 48zm236-415c0 80-65 145-145 145-39 0-39-57 0-57 48 0 87-40 87-88 0-38 58-38 58 0zm-416-88c38 0 38 58 0 58-96 0-128-128-70-128 16 0 29 13 29 29 0 23 18 41 41 41z" opacity="1" data-original="#e4e4e4"></path><g fill="#1aa1ff"><path d="M1194 350c-57 0-57 87 0 87s57-87 0-87zM1312 152c0 51 42 93 94 93 51 0 93-42 93-93 0-52-42-94-93-94-52 0-94 42-94 94z" fill="#1aa1ff" opacity="1" data-original="#1aa1ff"></path></g></g></svg>